<svg width="24" height="24" viewBox="0 0 24 24" xmlns="http://www.w3.org/2000/svg">
  <g fill="#C5C5C5">
    <!-- outer ring dots -->
    <circle cx="12" cy="1.5" r="1"/>
    <circle cx="8" cy="2.2" r="1"/>
    <circle cx="16" cy="2.2" r="1"/>
    <circle cx="4.5" cy="4.5" r="1"/>
    <circle cx="19.5" cy="4.5" r="1"/>
    <circle cx="2.2" cy="8" r="1"/>
    <circle cx="21.8" cy="8" r="1"/>
    <circle cx="1.5" cy="12" r="1"/>
    <circle cx="22.5" cy="12" r="1"/>
    <circle cx="2.2" cy="16" r="1"/>
    <circle cx="21.8" cy="16" r="1"/>
    <circle cx="4.5" cy="19.5" r="1"/>
    <circle cx="19.5" cy="19.5" r="1"/>
    <circle cx="8" cy="21.8" r="1"/>
    <circle cx="16" cy="21.8" r="1"/>
    <circle cx="12" cy="22.5" r="1"/>
    <!-- center dots -->
    <circle cx="8.5" cy="10" r="1.5"/>
    <circle cx="15.5" cy="10" r="1.5"/>
    <circle cx="8.5" cy="15.5" r="1.5"/>
    <circle cx="15.5" cy="15.5" r="1.5"/>
    <!-- center ring -->
    <circle cx="12" cy="12.8" r="1.8"/>
    <circle cx="12" cy="12.8" r="0.8" fill="#2d2d2d"/>
  </g>
</svg>
